<svg width="376" height="85" viewBox="0 0 376 85" fill="none" xmlns="http://www.w3.org/2000/svg">
<g filter="url(#filter0_bd_0_781)">
<rect width="375" height="83" transform="translate(0.138672 1.06714)" fill="white"/>
<g clip-path="url(#clip0_0_781)">
<path d="M25.2523 45.1045C25.7162 45.1045 26.1459 45.0312 26.5219 44.8848L27.1176 45.6953H28.2455L27.3178 44.4307C28.099 43.8008 28.5385 42.751 28.5385 41.4131V41.4033C28.5385 39.1426 27.2787 37.7168 25.2523 37.7168C23.2309 37.7168 21.9613 39.1377 21.9613 41.4033V41.4131C21.9613 43.6738 23.2016 45.1045 25.2523 45.1045ZM25.2523 44.1377C23.8949 44.1377 23.0795 43.0635 23.0795 41.4131V41.4033C23.0795 39.7383 23.9193 38.6836 25.2523 38.6836C26.5854 38.6836 27.4203 39.7383 27.4203 41.4033V41.4131C27.4203 42.3457 27.1566 43.0977 26.683 43.5713L26.1215 42.8096H24.9936L25.9018 44.04C25.7016 44.1035 25.4818 44.1377 25.2523 44.1377ZM31.4284 45.0361C32.1998 45.0361 32.737 44.7041 32.9909 44.1328H33.0739V44.9336H34.1286V39.6309H33.0739V42.7412C33.0739 43.5957 32.6198 44.1279 31.7702 44.1279C30.9938 44.1279 30.6715 43.6934 30.6715 42.8145V39.6309H29.612V43.0635C29.612 44.3184 30.2321 45.0361 31.4284 45.0361ZM37.663 45.0361C39.2157 45.0361 40.1679 43.9961 40.1679 42.2871V42.2773C40.1679 40.5684 39.2108 39.5283 37.663 39.5283C36.1102 39.5283 35.1532 40.5732 35.1532 42.2773V42.2871C35.1532 43.9961 36.1054 45.0361 37.663 45.0361ZM37.663 44.1523C36.7499 44.1523 36.2372 43.4639 36.2372 42.2871V42.2773C36.2372 41.1006 36.7499 40.4121 37.663 40.4121C38.5712 40.4121 39.0888 41.1006 39.0888 42.2773V42.2871C39.0888 43.459 38.5712 44.1523 37.663 44.1523ZM43.1945 44.9678C43.3995 44.9678 43.5948 44.9434 43.7657 44.9141V44.0693C43.6193 44.084 43.5265 44.0889 43.3654 44.0889C42.8429 44.0889 42.628 43.8545 42.628 43.2832V40.4658H43.7657V39.6309H42.628V38.293H41.5489V39.6309H40.7189V40.4658H41.5489V43.5371C41.5489 44.5576 42.0275 44.9678 43.1945 44.9678ZM46.9291 45.0361C48.2865 45.0361 49.0189 44.2549 49.1947 43.5566L49.2045 43.5127L48.1839 43.5176L48.1644 43.5566C48.0375 43.8301 47.6322 44.167 46.9535 44.167C46.0795 44.167 45.5228 43.5762 45.5033 42.5605H49.263V42.1895C49.263 40.5977 48.3548 39.5283 46.8754 39.5283C45.3959 39.5283 44.4388 40.6367 44.4388 42.292V42.2969C44.4388 43.9766 45.3763 45.0361 46.9291 45.0361ZM46.8802 40.3975C47.598 40.3975 48.1302 40.8564 48.2132 41.8037H45.5179C45.6107 40.8906 46.1576 40.3975 46.8802 40.3975ZM52.2115 45.0361C53.4713 45.0361 54.4088 44.3672 54.4088 43.3857V43.376C54.4088 42.6094 53.9205 42.1748 52.9 41.9355L52.0602 41.7451C51.4645 41.6035 51.2203 41.3984 51.2203 41.0664V41.0566C51.2203 40.6318 51.6402 40.3438 52.2213 40.3438C52.817 40.3438 53.193 40.6221 53.2955 40.9932V41.0029H54.3062V40.998C54.2135 40.1338 53.4371 39.5283 52.2262 39.5283C51.025 39.5283 50.1656 40.1924 50.1656 41.1152V41.1201C50.1656 41.8965 50.6295 42.3506 51.6305 42.5801L52.4752 42.7754C53.0904 42.917 53.3395 43.1416 53.3395 43.4736V43.4834C53.3395 43.918 52.8854 44.2158 52.2311 44.2158C51.6012 44.2158 51.2154 43.9473 51.0836 43.5469L51.0787 43.542H50.0191V43.5469C50.1217 44.4355 50.9322 45.0361 52.2115 45.0361Z" fill="#007AFF"/>
<g clip-path="url(#clip1_0_781)">
<path d="M44.7676 12.0671C43.3866 12.0671 42.2676 13.1861 42.2676 14.5671V25.5671C42.2676 26.9481 43.3866 28.0671 44.7676 28.0671C46.1486 28.0671 47.2676 26.9481 47.2676 25.5671V14.5671C47.2676 13.1861 46.1486 12.0671 44.7676 12.0671ZM37.7676 16.0671C36.3866 16.0671 35.2676 17.1861 35.2676 18.5671V25.5671C35.2676 26.9481 36.3866 28.0671 37.7676 28.0671C39.1486 28.0671 40.2676 26.9481 40.2676 25.5671V18.5671C40.2676 17.1861 39.1486 16.0671 37.7676 16.0671ZM30.7676 20.0671C29.3866 20.0671 28.2676 21.1861 28.2676 22.5671V25.5671C28.2676 26.9481 29.3866 28.0671 30.7676 28.0671C32.1486 28.0671 33.2676 26.9481 33.2676 25.5671V22.5671C33.2676 21.1861 32.1486 20.0671 30.7676 20.0671Z" fill="#007AFF"/>
</g>
<path d="M94.2891 44.9336H95.3829V42.5264H97.0332C98.4151 42.5264 99.3721 41.584 99.3721 40.207V40.1973C99.3721 38.8154 98.4151 37.8877 97.0332 37.8877H94.2891V44.9336ZM96.7598 38.8105C97.7071 38.8105 98.2588 39.3232 98.2588 40.2021V40.2119C98.2588 41.0957 97.7071 41.6084 96.7598 41.6084H95.3829V38.8105H96.7598ZM102.521 45.0361C104.074 45.0361 105.026 43.9961 105.026 42.2871V42.2773C105.026 40.5684 104.069 39.5283 102.521 39.5283C100.968 39.5283 100.011 40.5732 100.011 42.2773V42.2871C100.011 43.9961 100.963 45.0361 102.521 45.0361ZM102.521 44.1523C101.608 44.1523 101.095 43.4639 101.095 42.2871V42.2773C101.095 41.1006 101.608 40.4121 102.521 40.4121C103.429 40.4121 103.947 41.1006 103.947 42.2773V42.2871C103.947 43.459 103.429 44.1523 102.521 44.1523ZM106.05 44.9336H107.11V41.7646C107.11 40.998 107.662 40.5 108.472 40.5C108.672 40.5 108.853 40.5244 109.043 40.5635V39.5869C108.936 39.5625 108.751 39.5381 108.58 39.5381C107.872 39.5381 107.378 39.8701 107.188 40.4316H107.11V39.6309H106.05V44.9336ZM112.09 44.9678C112.295 44.9678 112.49 44.9434 112.661 44.9141V44.0693C112.514 44.084 112.422 44.0889 112.261 44.0889C111.738 44.0889 111.523 43.8545 111.523 43.2832V40.4658H112.661V39.6309H111.523V38.293H110.444V39.6309H109.614V40.4658H110.444V43.5371C110.444 44.5576 110.923 44.9678 112.09 44.9678ZM114.052 44.9336H115.106V40.4658H116.273V39.6309H115.097V39.123C115.097 38.5859 115.326 38.3027 115.912 38.3027C116.078 38.3027 116.22 38.3125 116.317 38.3271V37.5508C116.137 37.5215 115.932 37.502 115.692 37.502C114.589 37.502 114.052 38.0195 114.052 39.0742V39.6309H113.178V40.4658H114.052V44.9336ZM119.266 45.0361C120.819 45.0361 121.771 43.9961 121.771 42.2871V42.2773C121.771 40.5684 120.814 39.5283 119.266 39.5283C117.713 39.5283 116.756 40.5732 116.756 42.2773V42.2871C116.756 43.9961 117.708 45.0361 119.266 45.0361ZM119.266 44.1523C118.353 44.1523 117.84 43.4639 117.84 42.2871V42.2773C117.84 41.1006 118.353 40.4121 119.266 40.4121C120.174 40.4121 120.692 41.1006 120.692 42.2773V42.2871C120.692 43.459 120.174 44.1523 119.266 44.1523ZM122.844 44.9336H123.904V37.5508H122.844V44.9336ZM125.793 38.6836C126.154 38.6836 126.457 38.3857 126.457 38.0244C126.457 37.6582 126.154 37.3604 125.793 37.3604C125.426 37.3604 125.129 37.6582 125.129 38.0244C125.129 38.3857 125.426 38.6836 125.793 38.6836ZM125.26 44.9336H126.315V39.6309H125.26V44.9336ZM129.864 45.0361C131.417 45.0361 132.369 43.9961 132.369 42.2871V42.2773C132.369 40.5684 131.412 39.5283 129.864 39.5283C128.311 39.5283 127.354 40.5732 127.354 42.2773V42.2871C127.354 43.9961 128.307 45.0361 129.864 45.0361ZM129.864 44.1523C128.951 44.1523 128.438 43.4639 128.438 42.2871V42.2773C128.438 41.1006 128.951 40.4121 129.864 40.4121C130.772 40.4121 131.29 41.1006 131.29 42.2773V42.2871C131.29 43.459 130.772 44.1523 129.864 44.1523Z" fill="#9CA3AF"/>
<path d="M111.339 10.5078C106.676 10.8934 102.965 14.6047 102.579 19.2671H111.339V10.5078ZM112.939 10.5078V19.7359L119.465 26.2624C120.88 24.5896 121.739 22.4303 121.739 20.0671C121.739 15.0351 117.865 10.9158 112.939 10.5078V10.5078ZM102.579 20.8671C102.987 25.7935 107.107 29.6671 112.139 29.6671C114.502 29.6671 116.661 28.8089 118.334 27.3937L111.807 20.8671H102.579Z" fill="#9CA3AF"/>
<path d="M176.5 44.9336H177.593V37.8877H176.5V44.9336ZM180.932 45.0215C181.675 45.0215 182.256 44.6797 182.563 44.0986H182.646V44.9336H183.701V37.5508H182.646V40.4707H182.563C182.28 39.8994 181.66 39.5381 180.932 39.5381C179.585 39.5381 178.735 40.5977 178.735 42.2773V42.2871C178.735 43.9521 179.599 45.0215 180.932 45.0215ZM181.235 44.1182C180.346 44.1182 179.814 43.4248 179.814 42.2871V42.2773C179.814 41.1396 180.346 40.4463 181.235 40.4463C182.114 40.4463 182.661 41.1445 182.661 42.2773V42.2871C182.661 43.4199 182.119 44.1182 181.235 44.1182ZM187.265 45.0361C188.622 45.0361 189.354 44.2549 189.53 43.5566L189.54 43.5127L188.52 43.5176L188.5 43.5566C188.373 43.8301 187.968 44.167 187.289 44.167C186.415 44.167 185.858 43.5762 185.839 42.5605H189.599V42.1895C189.599 40.5977 188.69 39.5283 187.211 39.5283C185.731 39.5283 184.774 40.6367 184.774 42.292V42.2969C184.774 43.9766 185.712 45.0361 187.265 45.0361ZM187.216 40.3975C187.934 40.3975 188.466 40.8564 188.549 41.8037H185.854C185.946 40.8906 186.493 40.3975 187.216 40.3975ZM192.073 45.0215C192.777 45.0215 193.333 44.7188 193.646 44.1816H193.729V44.9336H194.779V41.3057C194.779 40.1924 194.027 39.5283 192.694 39.5283C191.488 39.5283 190.653 40.1094 190.526 40.9785L190.521 41.0127H191.541L191.546 40.9932C191.673 40.6172 192.059 40.4023 192.645 40.4023C193.363 40.4023 193.729 40.7246 193.729 41.3057V41.7744L192.293 41.8574C191.029 41.9355 190.316 42.4873 190.316 43.4346V43.4443C190.316 44.4062 191.063 45.0215 192.073 45.0215ZM191.37 43.4004V43.3906C191.37 42.9121 191.702 42.6484 192.435 42.6045L193.729 42.5215V42.9756C193.729 43.6592 193.148 44.1768 192.357 44.1768C191.785 44.1768 191.37 43.8887 191.37 43.4004ZM197.961 45.0361C199.221 45.0361 200.159 44.3672 200.159 43.3857V43.376C200.159 42.6094 199.67 42.1748 198.65 41.9355L197.81 41.7451C197.214 41.6035 196.97 41.3984 196.97 41.0664V41.0566C196.97 40.6318 197.39 40.3438 197.971 40.3438C198.567 40.3438 198.943 40.6221 199.045 40.9932V41.0029H200.056V40.998C199.963 40.1338 199.187 39.5283 197.976 39.5283C196.775 39.5283 195.916 40.1924 195.916 41.1152V41.1201C195.916 41.8965 196.379 42.3506 197.38 42.5801L198.225 42.7754C198.84 42.917 199.089 43.1416 199.089 43.4736V43.4834C199.089 43.918 198.635 44.2158 197.981 44.2158C197.351 44.2158 196.965 43.9473 196.833 43.5469L196.829 43.542H195.769V43.5469C195.872 44.4355 196.682 45.0361 197.961 45.0361Z" fill="#9CA3AF"/>
<g clip-path="url(#clip2_0_781)">
<path d="M181.206 10.0797C180.99 10.0768 180.782 10.1613 180.629 10.314C180.317 10.6264 180.317 11.1329 180.629 11.4453C180.942 11.7576 181.448 11.7576 181.761 11.4453C182.073 11.1329 182.073 10.6264 181.761 10.314C181.613 10.1666 181.414 10.0826 181.206 10.0797ZM194.782 10.0797C194.566 10.0763 194.357 10.1609 194.204 10.314C193.892 10.6264 193.892 11.1329 194.204 11.4453C194.517 11.7576 195.023 11.7576 195.336 11.4453C195.648 11.1329 195.648 10.6264 195.336 10.314C195.189 10.167 194.99 10.083 194.782 10.0797ZM187.982 10.4672C184.006 10.4672 180.782 13.6904 180.782 17.6672C180.782 21.6672 183.982 23.2672 185.582 26.4672H190.382C191.982 23.2672 195.182 21.6672 195.182 17.6672C195.182 13.6904 191.959 10.4672 187.982 10.4672ZM178.382 16.8672C177.941 16.8672 177.582 17.2253 177.582 17.6672C177.582 18.109 177.941 18.4672 178.382 18.4672C178.824 18.4672 179.182 18.109 179.182 17.6672C179.182 17.2253 178.824 16.8672 178.382 16.8672ZM197.582 16.8672C197.141 16.8672 196.782 17.2253 196.782 17.6672C196.782 18.109 197.141 18.4672 197.582 18.4672C198.024 18.4672 198.382 18.109 198.382 17.6672C198.382 17.2253 198.024 16.8672 197.582 16.8672ZM181.206 23.6547C180.989 23.6513 180.781 23.7359 180.628 23.889C180.315 24.2014 180.315 24.7079 180.628 25.0203C180.778 25.1707 180.982 25.2553 181.194 25.2553C181.407 25.2553 181.61 25.1708 181.761 25.0203C182.073 24.7079 182.073 24.2014 181.761 23.889C181.613 23.7416 181.414 23.6576 181.206 23.6547ZM194.781 23.6562C194.565 23.6529 194.357 23.7369 194.204 23.889C194.054 24.0391 193.969 24.2429 193.969 24.4554C193.969 24.668 194.054 24.8718 194.204 25.0218C194.517 25.3342 195.023 25.3342 195.336 25.0218C195.486 24.8718 195.571 24.668 195.571 24.4554C195.571 24.2429 195.486 24.0391 195.336 23.889C195.188 23.7422 194.989 23.6587 194.781 23.6562ZM185.582 28.0672V28.8672C185.582 29.7512 186.298 30.4672 187.182 30.4672C187.182 30.909 187.541 31.2672 187.982 31.2672C188.424 31.2672 188.782 30.909 188.782 30.4672C189.666 30.4672 190.382 29.7512 190.382 28.8672V28.0672H185.582Z" fill="#9CA3AF"/>
</g>
<path d="M256.198 44.9336H257.292V37.8877H256.198V44.9336ZM258.819 44.9336H259.913V42.5264H261.563C262.945 42.5264 263.902 41.584 263.902 40.207V40.1973C263.902 38.8154 262.945 37.8877 261.563 37.8877H258.819V44.9336ZM261.29 38.8105C262.237 38.8105 262.789 39.3232 262.789 40.2021V40.2119C262.789 41.0957 262.237 41.6084 261.29 41.6084H259.913V38.8105H261.29ZM268.076 45.1045C270.113 45.1045 271.363 43.6689 271.363 41.4131V41.4033C271.363 39.1426 270.103 37.7168 268.076 37.7168C266.055 37.7168 264.785 39.1377 264.785 41.4033V41.4131C264.785 43.6738 266.026 45.1045 268.076 45.1045ZM268.076 44.1377C266.719 44.1377 265.904 43.0635 265.904 41.4131V41.4033C265.904 39.7383 266.743 38.6836 268.076 38.6836C269.409 38.6836 270.244 39.7383 270.244 41.4033V41.4131C270.244 43.0635 269.414 44.1377 268.076 44.1377Z" fill="#9CA3AF"/>
<path d="M272.721 10.4843C272.721 10.4843 265.539 10.4671 259.939 16.0671C259.68 16.3257 259.455 16.6071 259.251 16.8984C258.258 16.819 256.738 16.8449 255.961 17.6234C254.145 19.4394 253.539 22.4671 253.539 22.4671L257.539 21.8953V23.2671L259.939 25.6671H261.311L260.739 29.6671C260.739 29.6671 263.766 29.0613 265.582 27.2453C266.361 26.4673 266.387 24.9475 266.307 23.9546C266.599 23.7508 266.88 23.5257 267.139 23.2671C272.739 17.6671 272.721 10.4843 272.721 10.4843ZM266.339 15.2671C267.223 15.2671 267.939 15.9831 267.939 16.8671C267.939 17.7511 267.223 18.4671 266.339 18.4671C265.455 18.4671 264.739 17.7511 264.739 16.8671C264.739 15.9831 265.455 15.2671 266.339 15.2671ZM256.898 24.064C256.594 24.144 256.306 24.2967 256.068 24.5343C254.976 25.6271 255.15 28.0546 255.15 28.0546C255.15 28.0546 257.561 28.2431 258.668 27.1359C258.906 26.8983 259.059 26.6086 259.139 26.3046L258.773 25.939C258.737 25.9902 258.715 26.0497 258.668 26.0953C257.888 26.8753 256.718 26.4859 256.718 26.4859C256.718 26.4859 256.328 25.3159 257.109 24.5359C257.155 24.4895 257.212 24.468 257.264 24.4312L256.898 24.064Z" fill="#9CA3AF"/>
<path d="M326.047 44.9336H327.044V39.7627H327.122L329.187 44.9336H329.998L332.068 39.7627H332.141V44.9336H333.137V37.8877H331.878L329.631 43.5078H329.553L327.307 37.8877H326.047V44.9336ZM336.769 45.0361C338.127 45.0361 338.859 44.2549 339.035 43.5566L339.045 43.5127L338.024 43.5176L338.005 43.5566C337.878 43.8301 337.473 44.167 336.794 44.167C335.92 44.167 335.363 43.5762 335.344 42.5605H339.103V42.1895C339.103 40.5977 338.195 39.5283 336.716 39.5283C335.236 39.5283 334.279 40.6367 334.279 42.292V42.2969C334.279 43.9766 335.217 45.0361 336.769 45.0361ZM336.721 40.3975C337.438 40.3975 337.971 40.8564 338.054 41.8037H335.358C335.451 40.8906 335.998 40.3975 336.721 40.3975ZM340.123 44.9336H341.183V41.8232C341.183 40.9688 341.666 40.4365 342.443 40.4365C343.219 40.4365 343.585 40.8711 343.585 41.75V44.9336H344.64V41.501C344.64 40.2363 343.985 39.5283 342.799 39.5283C342.027 39.5283 341.52 39.8701 341.261 40.4365H341.183V39.6309H340.123V44.9336ZM347.647 45.0361C348.418 45.0361 348.955 44.7041 349.209 44.1328H349.292V44.9336H350.347V39.6309H349.292V42.7412C349.292 43.5957 348.838 44.1279 347.989 44.1279C347.212 44.1279 346.89 43.6934 346.89 42.8145V39.6309H345.83V43.0635C345.83 44.3184 346.451 45.0361 347.647 45.0361Z" fill="#9CA3AF"/>
<g clip-path="url(#clip3_0_781)">
<g clip-path="url(#clip4_0_781)">
<path d="M330.268 11.0671C329.163 11.0671 328.268 11.9621 328.268 13.0671C328.268 14.1721 329.163 15.0671 330.268 15.0671C331.373 15.0671 332.268 14.1721 332.268 13.0671C332.268 11.9621 331.373 11.0671 330.268 11.0671ZM337.268 11.0671C336.163 11.0671 335.268 11.9621 335.268 13.0671C335.268 14.1721 336.163 15.0671 337.268 15.0671C338.373 15.0671 339.268 14.1721 339.268 13.0671C339.268 11.9621 338.373 11.0671 337.268 11.0671ZM344.268 11.0671C343.163 11.0671 342.268 11.9621 342.268 13.0671C342.268 14.1721 343.163 15.0671 344.268 15.0671C345.373 15.0671 346.268 14.1721 346.268 13.0671C346.268 11.9621 345.373 11.0671 344.268 11.0671ZM330.268 18.0671C329.163 18.0671 328.268 18.9621 328.268 20.0671C328.268 21.1721 329.163 22.0671 330.268 22.0671C331.373 22.0671 332.268 21.1721 332.268 20.0671C332.268 18.9621 331.373 18.0671 330.268 18.0671ZM337.268 18.0671C336.163 18.0671 335.268 18.9621 335.268 20.0671C335.268 21.1721 336.163 22.0671 337.268 22.0671C338.373 22.0671 339.268 21.1721 339.268 20.0671C339.268 18.9621 338.373 18.0671 337.268 18.0671ZM344.268 18.0671C343.163 18.0671 342.268 18.9621 342.268 20.0671C342.268 21.1721 343.163 22.0671 344.268 22.0671C345.373 22.0671 346.268 21.1721 346.268 20.0671C346.268 18.9621 345.373 18.0671 344.268 18.0671ZM330.268 25.0671C329.163 25.0671 328.268 25.9621 328.268 27.0671C328.268 28.1721 329.163 29.0671 330.268 29.0671C331.373 29.0671 332.268 28.1721 332.268 27.0671C332.268 25.9621 331.373 25.0671 330.268 25.0671ZM337.268 25.0671C336.163 25.0671 335.268 25.9621 335.268 27.0671C335.268 28.1721 336.163 29.0671 337.268 29.0671C338.373 29.0671 339.268 28.1721 339.268 27.0671C339.268 25.9621 338.373 25.0671 337.268 25.0671ZM344.268 25.0671C343.163 25.0671 342.268 25.9621 342.268 27.0671C342.268 28.1721 343.163 29.0671 344.268 29.0671C345.373 29.0671 346.268 28.1721 346.268 27.0671C346.268 25.9621 345.373 25.0671 344.268 25.0671Z" fill="#9CA3AF"/>
</g>
</g>
</g>
<rect x="122.139" y="71.0671" width="134" height="5" rx="2.5" fill="#1F2937"/>
</g>
<defs>
<filter id="filter0_bd_0_781" x="-19.8613" y="-18.9329" width="415" height="123" filterUnits="userSpaceOnUse" color-interpolation-filters="sRGB">
<feFlood flood-opacity="0" result="BackgroundImageFix"/>
<feGaussianBlur in="BackgroundImage" stdDeviation="10"/>
<feComposite in2="SourceAlpha" operator="in" result="effect1_backgroundBlur_0_781"/>
<feColorMatrix in="SourceAlpha" type="matrix" values="0 0 0 0 0 0 0 0 0 0 0 0 0 0 0 0 0 0 127 0" result="hardAlpha"/>
<feOffset dy="-0.5"/>
<feColorMatrix type="matrix" values="0 0 0 0 0 0 0 0 0 0 0 0 0 0 0 0 0 0 0.3 0"/>
<feBlend mode="normal" in2="effect1_backgroundBlur_0_781" result="effect2_dropShadow_0_781"/>
<feBlend mode="normal" in="SourceGraphic" in2="effect2_dropShadow_0_781" result="shape"/>
</filter>
<clipPath id="clip0_0_781">
<rect width="375" height="49" fill="white" transform="translate(0.138672 1.06714)"/>
</clipPath>
<clipPath id="clip1_0_781">
<rect width="24" height="24" fill="white" transform="translate(25.1387 8.06714)"/>
</clipPath>
<clipPath id="clip2_0_781">
<rect width="24" height="24" fill="white" transform="translate(175.639 8.06714)"/>
</clipPath>
<clipPath id="clip3_0_781">
<rect width="24" height="24" fill="white" transform="translate(325.139 8.06714)"/>
</clipPath>
<clipPath id="clip4_0_781">
<rect width="24" height="24" fill="white" transform="translate(325.268 8.06714)"/>
</clipPath>
</defs>
</svg>
