<svg width="25" height="25" viewBox="0 0 25 25" fill="none" xmlns="http://www.w3.org/2000/svg">
<path d="M7.67188 21.9243C4.89902 21.9243 2.31425 21.1178 0.138672 19.7262C1.98581 19.8458 5.24559 19.5595 7.27317 17.6255C4.22302 17.4856 2.84747 15.1462 2.66805 14.1465C2.92721 14.2465 4.16322 14.3665 4.86096 14.0866C1.3523 13.2068 0.814038 10.1277 0.933652 9.18797C1.59153 9.64784 2.70792 9.80779 3.1465 9.76781C-0.122934 7.42848 1.05327 3.9095 1.6314 3.14972C3.97766 6.40028 7.49399 8.22591 11.8441 8.32746C11.7621 7.96773 11.7188 7.59321 11.7188 7.20855C11.7188 4.44792 13.9502 2.21 16.7027 2.21C18.1409 2.21 19.4367 2.82093 20.3464 3.79814C21.3074 3.57294 22.7538 3.04577 23.4609 2.58989C23.1045 3.86951 21.9949 4.93699 21.3237 5.33263C21.3293 5.34609 21.3183 5.31911 21.3237 5.33263C21.9133 5.24345 23.5085 4.93688 24.1387 4.50933C23.827 5.22821 22.6507 6.42348 21.6853 7.09264C21.8649 15.014 15.8042 21.9243 7.67188 21.9243Z" fill="#47ACDF"/>
</svg>
