<?xml version="1.0" standalone="no"?>
<!DOCTYPE svg PUBLIC "-//W3C//DTD SVG 20010904//EN"
 "http://www.w3.org/TR/2001/REC-SVG-20010904/DTD/svg10.dtd">
<svg version="1.0" xmlns="http://www.w3.org/2000/svg"
 width="700.000000pt" height="700.000000pt" viewBox="0 0 700.000000 700.000000"
 preserveAspectRatio="xMidYMid meet">
<metadata>
Created by potrace 1.14, written by Peter Selinger 2001-2017
</metadata>
<g transform="translate(0.000000,700.000000) scale(0.100000,-0.100000)"
fill="#000000" stroke="none">
<path d="M1750 5979 l0 -438 -431 1 c-237 0 -434 -3 -437 -7 -9 -9 -10 -2597
-1 -2610 5 -6 162 -10 438 -9 l431 0 0 -437 0 -437 290 0 c263 0 290 1 291 16
1 10 2 206 2 437 l2 420 430 1 c237 1 433 2 438 3 4 1 7 591 7 1311 l0 1310
-27 1 c-16 0 -213 1 -439 1 l-410 0 1 421 c0 232 -1 429 -3 438 -3 14 -36 16
-293 16 l-289 0 0 -438z m875 -1751 l0 -728 -582 0 -583 0 0 23 c-1 34 -1
1325 0 1383 l0 52 582 -2 583 -1 0 -727z"/>
<path d="M4667 4952 c-1 -4 -2 -199 -2 -434 1 -236 -1 -429 -4 -429 -3 -1
-197 -3 -431 -4 -234 -2 -428 -4 -432 -4 -5 -1 -8 -590 -8 -1311 l0 -1310 78
0 c42 -1 239 -1 438 -1 l360 0 0 -422 c-1 -232 0 -429 2 -438 3 -14 37 -16
293 -16 l289 0 0 438 0 438 429 0 c237 -1 434 1 438 4 6 4 10 2593 4 2617 0 3
-197 5 -436 5 l-435 -1 0 437 0 437 -290 0 c-159 0 -291 -2 -293 -6z m873
-1562 c1 -60 1 -310 1 -555 0 -245 0 -523 -1 -619 l0 -174 -582 2 -583 1 -1
720 c0 396 1 723 3 728 2 4 265 7 584 7 l579 0 0 -110z"/>
</g>
</svg>
