<svg width="25" height="25" viewBox="0 0 25 25" fill="none" xmlns="http://www.w3.org/2000/svg">
<circle cx="12.1387" cy="12.0671" r="12" fill="#77B900"/>
<path d="M4.18207 11.1473C4.18207 11.1473 5.99035 8.47933 9.6009 8.20331V7.23537C5.60176 7.55654 2.13867 10.9436 2.13867 10.9436C2.13867 10.9436 4.10011 16.6138 9.6009 17.133V16.1041C5.56416 15.5963 4.18207 11.1473 4.18207 11.1473ZM9.6009 14.058V15.0002C6.55002 14.4563 5.70317 11.2849 5.70317 11.2849C5.70317 11.2849 7.16802 9.66214 9.6009 9.39898V10.4329C9.59905 10.4329 9.59776 10.4323 9.59624 10.4323C8.31933 10.2791 7.32182 11.4719 7.32182 11.4719C7.32182 11.4719 7.88092 13.4801 9.6009 14.058ZM9.6009 5.45007V7.23537C9.71829 7.22637 9.83569 7.21873 9.95373 7.21472C14.5003 7.06148 17.4627 10.9436 17.4627 10.9436C17.4627 10.9436 14.0603 15.0809 10.5156 15.0809C10.1907 15.0809 9.88655 15.0507 9.6009 15.0001V16.1041C9.84517 16.1351 10.0984 16.1534 10.3627 16.1534C13.6613 16.1534 16.0468 14.4687 18.3567 12.4749C18.7396 12.7816 20.3075 13.5278 20.6298 13.8544C18.4336 15.6932 13.3151 17.1754 10.4133 17.1754C10.1336 17.1754 9.86494 17.1584 9.6009 17.133V18.6843H22.1387V5.45007H9.6009ZM9.6009 9.39898V8.20339C9.71709 8.19528 9.83416 8.18901 9.95373 8.18523C13.2232 8.08254 15.3681 10.9948 15.3681 10.9948C15.3681 10.9948 13.0514 14.2124 10.5673 14.2124C10.2098 14.2124 9.88929 14.155 9.60082 14.058V10.4329C10.8736 10.5867 11.1298 11.1489 11.895 12.4245L13.5969 10.9895C13.5969 10.9895 12.3545 9.36016 10.2603 9.36016C10.0326 9.36008 9.8148 9.37608 9.6009 9.39898Z" fill="white"/>
</svg>
