<svg width="25" height="25" viewBox="0 0 25 25" fill="none" xmlns="http://www.w3.org/2000/svg">
<circle cx="12.1387" cy="12.0671" r="12" fill="#E82127"/>
<path d="M12.1392 21.2541L14.4396 8.31616C16.6324 8.31616 17.324 8.55661 17.4239 9.53804C17.4239 9.53804 18.8948 8.98958 19.6367 7.87566C16.7416 6.53414 13.8327 6.47364 13.8327 6.47364L12.1353 8.54104L12.1392 8.54078L10.4418 6.47331C10.4418 6.47331 7.53278 6.53388 4.63808 7.8754C5.37933 8.98932 6.85087 9.53779 6.85087 9.53779C6.95131 8.55628 7.64211 8.31583 9.82015 8.31428L12.1392 21.2541Z" fill="white"/>
<path d="M12.1389 5.8764C14.4792 5.8585 17.1579 6.23843 19.9001 7.4336C20.2666 6.77393 20.3608 6.48238 20.3608 6.48238C17.3632 5.29642 14.556 4.89055 12.1386 4.88037C9.72132 4.89055 6.91422 5.29649 3.91699 6.48238C3.91699 6.48238 4.0507 6.8415 4.3774 7.4336C7.11907 6.23843 9.79823 5.8585 12.1386 5.8764H12.1389Z" fill="white"/>
</svg>
