<svg width="376" height="45" viewBox="0 0 376 45" fill="none" xmlns="http://www.w3.org/2000/svg">
<path opacity="0.36" fill-rule="evenodd" clip-rule="evenodd" d="M339.728 17.2271H354.549C355.797 17.2271 356.25 17.3571 356.706 17.6011C357.163 17.8452 357.521 18.2033 357.765 18.6596C358.009 19.1159 358.139 19.5685 358.139 20.8166V25.1377C358.139 26.3858 358.009 26.8384 357.765 27.2947C357.521 27.751 357.163 28.1091 356.706 28.3532C356.25 28.5972 355.797 28.7271 354.549 28.7271H339.728C338.48 28.7271 338.027 28.5972 337.571 28.3532C337.115 28.1091 336.757 27.751 336.513 27.2947C336.269 26.8384 336.139 26.3858 336.139 25.1377V20.8166C336.139 19.5685 336.269 19.1159 336.513 18.6596C336.757 18.2033 337.115 17.8452 337.571 17.6011C338.027 17.3571 338.48 17.2271 339.728 17.2271ZM339.728 18.2271C338.741 18.2271 338.397 18.2937 338.043 18.4829C337.761 18.6338 337.545 18.8491 337.394 19.1312C337.205 19.485 337.139 19.8296 337.139 20.8166V25.1377C337.139 26.1247 337.205 26.4692 337.394 26.8231C337.545 27.1052 337.761 27.3205 338.043 27.4713C338.397 27.6606 338.741 27.7271 339.728 27.7271H354.549C355.536 27.7271 355.881 27.6606 356.235 27.4713C356.517 27.3205 356.732 27.1052 356.883 26.8231C357.072 26.4692 357.139 26.1247 357.139 25.1377V20.8166C357.139 19.8296 357.072 19.485 356.883 19.1312C356.732 18.8491 356.517 18.6338 356.235 18.4829C355.881 18.2937 355.536 18.2271 354.549 18.2271H339.728ZM360.639 22.9171C360.639 24.1537 359.139 24.9171 359.139 24.9171V20.9171C359.139 20.9171 360.639 21.6806 360.639 22.9171Z" fill="black"/>
<rect x="338.139" y="19.1438" width="18" height="7.66667" rx="1.6" fill="black"/>
<path fill-rule="evenodd" clip-rule="evenodd" d="M323.439 19.7635C325.674 19.7636 327.823 20.6221 329.442 22.1617C329.564 22.2806 329.759 22.2791 329.879 22.1583L331.045 20.9819C331.105 20.9207 331.139 20.8378 331.139 20.7515C331.138 20.6652 331.103 20.5826 331.042 20.5221C326.792 16.4488 320.086 16.4488 315.836 20.5221C315.774 20.5826 315.739 20.6651 315.739 20.7514C315.738 20.8377 315.772 20.9207 315.833 20.9819L316.999 22.1583C317.119 22.2792 317.314 22.2807 317.436 22.1617C319.055 20.622 321.205 19.7635 323.439 19.7635ZM323.439 23.5909C324.667 23.5908 325.851 24.0471 326.761 24.8712C326.884 24.9881 327.078 24.9856 327.198 24.8654L328.362 23.689C328.423 23.6273 328.457 23.5436 328.456 23.4566C328.456 23.3696 328.42 23.2866 328.357 23.2262C325.586 20.6484 321.295 20.6484 318.523 23.2262C318.461 23.2866 318.425 23.3697 318.424 23.4567C318.423 23.5437 318.458 23.6274 318.519 23.689L319.683 24.8654C319.803 24.9856 319.997 24.9881 320.12 24.8712C321.029 24.0477 322.212 23.5914 323.439 23.5909ZM325.677 26.3985C325.739 26.3374 325.773 26.2533 325.772 26.166C325.77 26.0788 325.732 25.9962 325.667 25.9377C324.381 24.8498 322.497 24.8498 321.211 25.9377C321.146 25.9961 321.109 26.0787 321.107 26.166C321.105 26.2532 321.139 26.3373 321.201 26.3985L323.216 28.431C323.275 28.4907 323.355 28.5243 323.439 28.5243C323.523 28.5243 323.604 28.4907 323.663 28.431L325.677 26.3985Z" fill="black"/>
<path fill-rule="evenodd" clip-rule="evenodd" d="M307.762 18.633C307.739 18.749 307.739 18.8884 307.739 19.1671V26.8671C307.739 27.1459 307.739 27.2853 307.762 27.4013C307.856 27.8773 308.229 28.2494 308.705 28.3441C308.82 28.3671 308.96 28.3671 309.239 28.3671C309.517 28.3671 309.657 28.3671 309.773 28.3441C310.249 28.2494 310.621 27.8773 310.716 27.4013C310.739 27.2853 310.739 27.1459 310.739 26.8671V19.1671C310.739 18.8884 310.739 18.749 310.716 18.633C310.621 18.157 310.249 17.7849 309.773 17.6902C309.657 17.6671 309.517 17.6671 309.239 17.6671C308.96 17.6671 308.82 17.6671 308.705 17.6902C308.229 17.7849 307.856 18.157 307.762 18.633ZM303.039 21.5671C303.039 21.2884 303.039 21.149 303.062 21.033C303.156 20.557 303.529 20.1849 304.005 20.0902C304.12 20.0671 304.26 20.0671 304.539 20.0671C304.817 20.0671 304.957 20.0671 305.073 20.0902C305.549 20.1849 305.921 20.557 306.016 21.033C306.039 21.149 306.039 21.2884 306.039 21.5671V26.8671C306.039 27.1459 306.039 27.2853 306.016 27.4013C305.921 27.8773 305.549 28.2494 305.073 28.3441C304.957 28.3671 304.817 28.3671 304.539 28.3671C304.26 28.3671 304.12 28.3671 304.005 28.3441C303.529 28.2494 303.156 27.8773 303.062 27.4013C303.039 27.2853 303.039 27.1459 303.039 26.8671V21.5671ZM298.462 23.333C298.439 23.449 298.439 23.5884 298.439 23.8671V26.8671C298.439 27.1459 298.439 27.2853 298.462 27.4013C298.556 27.8773 298.929 28.2494 299.405 28.3441C299.52 28.3671 299.66 28.3671 299.939 28.3671C300.217 28.3671 300.357 28.3671 300.473 28.3441C300.949 28.2494 301.321 27.8773 301.416 27.4013C301.439 27.2853 301.439 27.1459 301.439 26.8671V23.8671C301.439 23.5884 301.439 23.449 301.416 23.333C301.321 22.857 300.949 22.4849 300.473 22.3902C300.357 22.3671 300.217 22.3671 299.939 22.3671C299.66 22.3671 299.52 22.3671 299.405 22.3902C298.929 22.4849 298.556 22.857 298.462 23.333ZM293.662 25.333C293.639 25.449 293.639 25.5884 293.639 25.8671V26.8671C293.639 27.1459 293.639 27.2853 293.662 27.4013C293.756 27.8773 294.129 28.2494 294.605 28.3441C294.72 28.3671 294.86 28.3671 295.139 28.3671C295.417 28.3671 295.557 28.3671 295.673 28.3441C296.149 28.2494 296.521 27.8773 296.616 27.4013C296.639 27.2853 296.639 27.1459 296.639 26.8671V25.8671C296.639 25.5884 296.639 25.449 296.616 25.333C296.521 24.857 296.149 24.4849 295.673 24.3902C295.557 24.3671 295.417 24.3671 295.139 24.3671C294.86 24.3671 294.72 24.3671 294.605 24.3902C294.129 24.4849 293.756 24.857 293.662 25.333Z" fill="black"/>
<path d="M34.436 28.3235C37.124 28.3235 38.7207 26.2214 38.7207 22.6619C38.7207 19.1682 37.0215 17.2346 34.4946 17.2346C32.1948 17.2346 30.5688 18.78 30.5688 20.948C30.5688 22.9768 32.0337 24.4563 34.0479 24.4563C35.2856 24.4563 36.2891 23.885 36.7871 22.8816H36.9116C36.8896 25.3279 36.0034 26.7415 34.458 26.7415C33.5498 26.7415 32.8247 26.2507 32.5977 25.4597H30.7153C31.0229 27.1882 32.5024 28.3235 34.436 28.3235ZM34.502 22.9622C33.2715 22.9622 32.4219 22.1125 32.4219 20.8894C32.4219 19.7102 33.3154 18.8093 34.5093 18.8093C35.7031 18.8093 36.5967 19.7249 36.5967 20.926C36.5967 22.1052 35.7251 22.9622 34.502 22.9622ZM41.8736 26.6096C42.5694 26.6096 43.0454 26.1116 43.0454 25.4524C43.0454 24.7859 42.5694 24.2952 41.8736 24.2952C41.1851 24.2952 40.7017 24.7859 40.7017 25.4524C40.7017 26.1116 41.1851 26.6096 41.8736 26.6096ZM41.8736 21.2629C42.5694 21.2629 43.0454 20.7722 43.0454 20.113C43.0454 19.4465 42.5694 18.9558 41.8736 18.9558C41.1851 18.9558 40.7017 19.4465 40.7017 20.113C40.7017 20.7722 41.1851 21.2629 41.8736 21.2629ZM50.1827 28.0671H51.9918V26.053H53.42V24.4563H51.9918V17.4983H49.3258C47.8902 19.6809 46.3888 22.0906 45.0191 24.4783V26.053H50.1827V28.0671ZM46.7696 24.3977C47.8023 22.6179 49.0255 20.677 50.1095 19.0364H50.212V24.5002H46.7696V24.3977ZM57.5836 28.0671H59.4733V17.4983H57.5909L54.8297 19.4319V21.2483L57.4591 19.4026H57.5836V28.0671Z" fill="black"/>
</svg>
